<svg width="40" height="40" viewBox="0 0 40 40" fill="none" xmlns="http://www.w3.org/2000/svg" role="img" aria-label="Beads: git-backed tasks for AI agents">
    <g stroke="currentColor" stroke-linecap="round" stroke-linejoin="round">
        <!-- "string" / graph edges -->
        <path d="M14 30 C16 27 17 25 18 22 C19 19 21 17 22 14" stroke-width="2"/>
        <path d="M18 22 C15 19 13 17 10 14" stroke-width="2"/>
        <path d="M18 22 C22 18 25 15 30 10" stroke-width="2"/>

        <!-- beads (nodes) -->
        <g>
            <circle cx="14" cy="30" r="3.6" stroke-width="2"/>
            <circle cx="14" cy="30" r="1.2" stroke-width="1"/>

            <circle cx="18" cy="22" r="3.6" stroke-width="2"/>
            <circle cx="18" cy="22" r="1.2" stroke-width="1"/>

            <circle cx="22" cy="14" r="3.6" stroke-width="2"/>
            <circle cx="22" cy="14" r="1.2" stroke-width="1"/>

            <circle cx="10" cy="14" r="3.6" stroke-width="2"/>
            <circle cx="10" cy="14" r="1.2" stroke-width="1"/>

            <circle cx="30" cy="10" r="3.6" stroke-width="2"/>
            <circle cx="30" cy="10" r="1.2" stroke-width="1"/>
        </g>

        <!-- subtle "agent" spark -->
        <g stroke-width="1.4">
            <path d="M35 4.5 V9.5"/>
            <path d="M32.5 7 H37.5"/>
            <path d="M33.4 5.4 L36.6 8.6"/>
            <path d="M36.6 5.4 L33.4 8.6"/>
        </g>
    </g>
</svg>
